<?xml version="1.0"?>
<!-- Converted with SVG Converter - Version 0.9.5 (Compiled Mon May 30 09:08:51 2011) - Copyright (C) 2011 Nokia -->
<svg xmlns="http://www.w3.org/2000/svg" width="134.66209" version="1.1" height="134.66209" baseProfile="tiny" xmlns:xlink="http://www.w3.org/1999/xlink" id="svg2987">
 <defs id="defs2989"/>
 <metadata id="metadata2992"/>
 <g id="layer1" transform="translate(-304.71619,-458.85004)">
  <path style="fill:#ff0000;fill-opacity:1;stroke-width:2;stroke-linecap:round;stroke-linejoin:miter;stroke-miterlimit:3.9000001;stroke-dasharray:2, 6;stroke-dashoffset:1" id="rect3018-4" d="m 439.37829,488.96688 -106.8767,103.20292 -27.7854,-28.7745 106.8767,-103.20291 z m -104.54525,-30.11684 103.20291,106.8767 -28.77449,27.7854 -103.20292,-106.8767 z"/>
  <path style="fill:#0000ff;fill-opacity:1;stroke-width:2;stroke-linecap:round;stroke-linejoin:miter;stroke-miterlimit:3.9000001;stroke-dasharray:2, 6;stroke-dashoffset:1" id="path3065" d="M 85.611701,114.60947 C 75.404605,104.04472 66.88363,95.464738 66.676205,95.542837 c -0.207425,0.0781 -8.961341,8.437883 -19.453146,18.577283 -10.491805,10.13941 -19.229526,18.43529 -19.417157,18.43529 -0.438292,0 -27.01195201,-27.53754 -27.01195201,-27.99173 0,-0.18778 7.50038261,-7.573844 16.66751701,-16.413467 9.167134,-8.839628 17.8684,-17.248264 19.336146,-18.685852 L 39.466242,66.850555 20.756578,47.442178 C 10.466262,36.767572 2.108647,27.8486 2.1840996,27.622243 2.2595522,27.395885 8.568881,21.196327 16.20483,13.845448 L 30.088374,0.48021396 41.67954,12.47465 c 6.375141,6.596939 14.898301,15.344733 18.940361,19.439541 l 7.349193,7.445105 19.324648,-18.683052 C 97.922294,10.400565 106.70019,1.9931911 106.80018,1.9931911 c 0.1,0 6.33022,6.3198138 13.84497,14.0440309 l 13.66317,14.044031 -19.39309,18.659658 c -10.6662,10.26281 -19.399028,18.849526 -19.406286,19.081593 -0.01101,0.35274 16.002466,17.102994 33.189046,34.716026 l 4.22351,4.3283 -13.9915,13.47564 c -7.69532,7.4116 -14.1644,13.47563 -14.37572,13.47563 -0.21131,0 -8.735477,-8.64389 -18.942579,-19.20863 z" transform="translate(304.71619,458.85004)"/>
 </g>
</svg>
