<?xml version="1.0"?>
<!-- Converted with SVG Converter - Version 0.9.5 (Compiled Mon May 30 09:08:51 2011) - Copyright (C) 2011 Nokia -->
<svg xmlns="http://www.w3.org/2000/svg" width="256" version="1.1" height="183.92" xmlns:xlink="http://www.w3.org/1999/xlink" baseProfile="tiny" id="svg4335">
 <defs id="defs4337">
  <linearGradient id="linearGradient4047" y1="474.3" y2="462.99" x1="602.1" gradientUnits="userSpaceOnUse" x2="588.84">
   <stop offset="0" stop-color="#24211f" id="stop4043"/>
   <stop offset="1" stop-color="#929190" id="stop4045"/>
  </linearGradient>
  <linearGradient id="linearGradient4055" y1="468.47" y2="448.67" x1="615.54" gradientUnits="userSpaceOnUse" x2="591.49">
   <stop offset="0" stop-color="#f5c18d" id="stop4051"/>
   <stop offset="1" stop-color="#fbebdb" id="stop4053"/>
  </linearGradient>
  <linearGradient id="linearGradient4079" y1="434" y2="413.84" x1="644" gradientUnits="userSpaceOnUse" x2="618.72">
   <stop offset="0" stop-color="#f8c200" id="stop4075"/>
   <stop offset="0.30556" stop-color="#f8c506" id="stop4081"/>
   <stop offset="1" stop-color="#fcef96" id="stop4077"/>
  </linearGradient>
  <linearGradient id="linearGradient4089" y1="429.74" y2="409.49" x1="647.25" gradientUnits="userSpaceOnUse" x2="621.88">
   <stop offset="0" stop-color="#ababab" id="stop4085"/>
   <stop offset="1" stop-color="#d6d7d7" id="stop4087"/>
  </linearGradient>
  <linearGradient id="linearGradient4097" y1="415.52" y2="408.72" x1="656.73" gradientUnits="userSpaceOnUse" x2="622.78">
   <stop offset="0" stop-color="#98190a" id="stop4093"/>
   <stop offset="0.6" stop-color="#c8561a" id="stop4099"/>
   <stop offset="1" stop-color="#de6e18" id="stop4095"/>
  </linearGradient>
 </defs>
 <metadata id="metadata4340"/>
 <g id="layer1" transform="translate(-157.56404,-444.81501)">
  <path fill="#dfe0d5" id="path5665" d="m157.56,628.73h256c-16.397-47.577-32.793-95.155-49.19-142.73h-165.13c-13.894,47.577-27.789,95.155-41.683,142.73z"/>
 </g>
 <g stroke-opacity="0.78431373" stroke-dasharray="none" stroke="#748290" stroke-linejoin="miter" id="layer2" stroke-linecap="butt" transform="translate(-157.56404,-444.81501)" stroke-miterlimit="4">
  <path fill="none" id="path4171-0" stroke-width="1.86537921" d="m174.69,593.9,407.16,0" transform="matrix(0.57520409,0,0,0.57520409,66.932559,246.35193)"/>
  <path fill="none" id="path4171-0-2" stroke-width="1.70849252" d="m191.67,538.22,370.13,0" transform="matrix(0.57520409,0,0,0.57520409,66.932559,246.35193)"/>
  <path fill="none" id="path4171-0-2-7" stroke-width="1.65859437" d="m205.07,492.56,341.02,0" transform="matrix(0.57520409,0,0,0.57520409,66.932559,246.35193)"/>
  <path fill="none" id="path4171-0-2-7-8" stroke-width="1.61380064" d="m216.26,453.93,316.63,0" transform="matrix(0.57520409,0,0,0.57520409,66.932559,246.35193)"/>
  <path fill="none" id="path4171-03-8" stroke-width="1.18927836" d="M283.26,415.06,239.16,666.44" transform="matrix(0.57520409,0,0,0.57520409,66.932559,246.35193)"/>
  <path fill="none" id="path4171-03-8-4" stroke-width="1.1515696" d="M328.98,414.92,309.85,666.33" transform="matrix(0.57520409,0,0,0.57520409,66.932559,246.35193)"/>
  <path fill="none" id="path4171-03-8-4-9" stroke-width="1.14231515" d="m376.28,415.06,4.9233,251.38" transform="matrix(0.57520409,0,0,0.57520409,66.932559,246.35193)"/>
  <path fill="none" id="path4171-03-8-6" stroke-width="1.19941723" d="m467.77,414.92,54.956,251.56" transform="matrix(0.57520409,0,0,0.57520409,66.932559,246.35193)"/>
  <path fill="none" id="path4171-03-8-4-7" stroke-width="1.14656556" d="m421.91,414.97,29.221,251.45" transform="matrix(0.57520409,0,0,0.57520409,66.932559,246.35193)"/>
  <path id="path4531-1" stroke-width="1.27603829" d="m510.75,414.91,84.542,251.53" transform="matrix(0.57520409,0,0,0.57520409,66.932559,246.35193)"/>
  <path id="path4529-6" stroke-width="1.25995398" d="M238.61,414.73,165.6,666.51" transform="matrix(0.57520409,0,0,0.57520409,66.932559,246.35193)"/>
  <path id="path4527-1" stroke-width="1.27328134" d="m225.86,420.32,295.57,0" transform="matrix(0.57520409,0,0,0.57520409,66.932559,246.35193)"/>
  <path id="path4171-03-9-3" stroke-width="1.27191353" d="m155.52,659.63,448.9,0" transform="matrix(0.57520409,0,0,0.57520409,66.932559,246.35193)"/>
 </g>
 <g id="layer3" transform="translate(-157.56404,-444.81501)">
  <path stroke-dasharray="none" fill="none" stroke="#000" stroke-linejoin="miter" style="marker-start:none;marker-mid:none;" id="path6230" stroke-linecap="butt" stroke-width="4.31403065" d="m253.05,530.02-35.609,26.01,30.899,32.032,36.49-31.996-0.0719-0.0359-31.708-26.01z" stroke-miterlimit="4"/>
  <path stroke-dasharray="none" fill="none" stroke="#000" stroke-linejoin="miter" style="marker-start:none;marker-mid:none;" id="path4282" stroke-linecap="butt" stroke-width="4.31403065" d="m252.98,529.99,31.708,26.01,0.0719,0.0359,29.983-26.298-31.007-22.217-30.755,22.469z" stroke-miterlimit="4"/>
  <path fill="#F00" fill-rule="nonzero" id="path3083" d="m174.03,193.19c0,6.6274-5.3726,12-12,12s-12-5.3726-12-12,5.3726-12,12-12,12,5.3726,12,12z" transform="matrix(0.57520409,0,0,0.57520409,157.56403,444.81509)"/>
  <path fill="#F00" fill-rule="nonzero" id="path5467" d="m234.22,248.87c0,6.6274-5.3726,12-12,12s-12-5.3726-12-12,5.3726-12,12-12,12,5.3726,12,12z" transform="matrix(0.57520409,0,0,0.57520409,157.564,444.81316)"/>
  <path fill="#F00" fill-rule="nonzero" id="path5471" d="m297.14,248.87c0,6.6274-5.3726,12-12,12s-12-5.3726-12-12,5.3726-12,12-12,12,5.3726,12,12z" transform="matrix(0.57520409,0,0,0.57520409,157.56383,444.81316)"/>
  <path fill="#F00" fill-rule="nonzero" id="path5473" d="m232.23,147.53c0,6.6274-5.3726,12-12,12s-12-5.3726-12-12,5.3726-12,12-12,12,5.3726,12,12z" transform="matrix(0.57520409,0,0,0.57520409,157.56407,444.81667)"/>
  <path fill="#000" fill-rule="nonzero" id="path7348" d="m224.58,555.94c0,3.866-3.134,7-7,7s-7-3.134-7-7,3.134-7,7-7,7,3.134,7,7z"/>
  <path fill="#000" fill-rule="nonzero" id="path7350" d="m169.8,248.87c0,6.6274-5.3726,12-12,12s-12-5.3726-12-12,5.3726-12,12-12,12,5.3726,12,12z" transform="matrix(0.57520409,0,0,0.57520409,157.55815,444.89249)"/>
  <path fill="#000" fill-rule="nonzero" id="path7354" d="m233.13,193.19c0,6.6274-5.3726,12-12,12s-12-5.3726-12-12,5.3726-12,12-12,12,5.3726,12,12z" transform="matrix(0.57520409,0,0,0.57520409,157.56595,444.91233)"/>
  <path fill="#000" fill-rule="nonzero" id="path7356" d="m285.36,147.53c0,6.6274-5.3726,12-12,12s-12-5.3726-12-12,5.3726-12,12-12,12,5.3726,12,12z" transform="matrix(0.57520409,0,0,0.57520409,157.56423,444.81667)"/>
  <path fill="#000" fill-rule="nonzero" id="path7358" d="m231.48,108.9c0,6.6274-5.3726,12-12,12s-12-5.3726-12-12,5.3726-12,12-12,12,5.3726,12,12z" transform="matrix(0.57520409,0,0,0.57520409,157.56636,444.93336)"/>
  <path fill="#000" fill-rule="nonzero" id="path7360" d="m177.51,147.53c0,6.6274-5.3726,12-12,12s-12-5.3726-12-12,5.3726-12,12-12,12,5.3726,12,12z" transform="matrix(0.57520409,0,0,0.57520409,157.83674,445.17412)"/>
 </g>
 <g id="layer4" transform="translate(-157.56404,-444.81501)">
  <g id="g4101" transform="matrix(0.94291418,0,0,0.94291418,-231.42636,70.543872)">
   <path fill="url(#linearGradient4047)" id="path4020" d="m603.25,474.34c-4.7271-3.9834-10.465-8.8387-14.875-12.562-1.0298,5.6073-2.1253,11.205-2.9688,16.844-0.11293,1.4829,1.5222,2.7541,2.9062,2.0312,4.999-2.0588,9.963-4.1954,14.938-6.3125z"/>
   <path fill="url(#linearGradient4055)" id="path4026" d="m616.69,468.62-25.656-21.156-0.0937-0.0937-0.0312,0.0312c-0.83448,4.7929-1.6524,9.5897-2.5312,14.375,4.4099,3.7238,10.148,8.5791,14.875,12.562,4.4546-1.8958,8.9183-3.7654,13.375-5.6562,0.0184-0.0228,0.0441-0.0397,0.0625-0.0625z"/>
   <path fill="url(#linearGradient4079)" id="path4036" d="m618.62,412.91-27.688,34.469,0.0937,0.0937,25.656,21.156c9.3689-11.611,18.754-23.205,28.125-34.812l-0.0312-0.0312-26.156-20.875z"/>
   <path fill="url(#linearGradient4089)" id="path4023" d="m618.62,412.91,26.156,20.875,0.0312,0.0312c1.1027-1.3658,2.2104-2.7275,3.3125-4.0938l-26.219-20.906-3.2812,4.0938z"/>
   <path fill="url(#linearGradient4097)" id="path4003" d="m621.91,408.81c8.7396,6.9688,17.479,13.938,26.219,20.906,2.6062-3.2823,5.3235-6.4758,7.8667-9.8083,2.5346-3.3213,1.7408-6.4143-3.495-10.737-4.5176-3.7297-9.1042-7.3826-13.84-10.83-2.9666-2.1592-6.7215-1.8951-9.2169,1.1407-1.6467,2.0033-5.9059,7.3088-7.5331,9.3281z"/>
  </g>
 </g>
</svg>
